<svg xmlns="http://www.w3.org/2000/svg" xmlns:xlink="http://www.w3.org/1999/xlink"><symbol id="codepen-icon" viewBox="0 0 50 50" xml:space="preserve" xmlns="http://www.w3.org/2000/svg"><style>.ast0{fill:#fff}</style><path class="ast0" d="M49.1 15.6L26.2.4c-.8-.5-1.6-.5-2.4 0L.9 15.6c-.5.4-.9 1.1-.9 1.8v15.2c0 .7.4 1.4.9 1.8l22.9 15.2c.8.5 1.6.5 2.4 0l22.9-15.2c.6-.4.9-1.1.9-1.8V17.4c0-.7-.4-1.4-.9-1.8zm-22-9.4L44 17.4l-7.5 5-9.3-6.2v-10zm-4.2 0v10l-9.3 6.2-7.5-5L22.9 6.2zM4.3 21.4L9.7 25l-5.4 3.6v-7.2zm18.6 22.4L6 32.6l7.5-5 9.3 6.2v10zM25 30.1L17.4 25l7.6-5.1 7.6 5.1-7.6 5.1zm2.1 13.7v-10l9.3-6.2 7.5 5-16.8 11.2zm18.6-15.2L40.3 25l5.4-3.6v7.2z"/></symbol><symbol id="email-icon" viewBox="0 0 50 50" xml:space="preserve" xmlns="http://www.w3.org/2000/svg"><style>.bst0{fill:#fff}</style><path class="bst0" d="M44.6 0H5.4C2.4 0 0 2.4 0 5.4v39.3c0 3 2.4 5.4 5.4 5.4h39.3c3 0 5.4-2.4 5.4-5.4V5.4C50 2.4 47.6 0 44.6 0zM19.9 25.7c-10.1-7.3-10-7.4-12.7-9.5v-2.8c0-1.5 1.2-2.7 2.7-2.7h30.4c1.5 0 2.7 1.2 2.7 2.7v2.8c-2.7 2.1-2.6 2.1-12.7 9.5-1.2.9-3.5 2.9-5.1 2.9-1.8 0-4.1-2.1-5.3-2.9zm23-5v15.9c0 1.5-1.2 2.7-2.7 2.7H9.8c-1.5 0-2.7-1.2-2.7-2.7V20.7c1.6 1.2 3.7 2.8 10.6 7.8 1.6 1.2 4.2 3.6 7.2 3.6s5.7-2.5 7.2-3.6c7-4.9 9.2-6.6 10.8-7.8z"/></symbol><symbol id="facebook-icon" viewBox="0 0 51 50" xml:space="preserve" xmlns="http://www.w3.org/2000/svg"><style>.cst0{fill:#fff}</style><path class="cst0" d="M51 5.4v39.3c0 3-2.4 5.4-5.4 5.4h-9.5V30.2h6.8l1-7.5h-7.7v-4.8c0-2.2.6-3.7 3.7-3.7h4V7.4c-.7-.1-3.1-.3-5.8-.3-5.8 0-9.7 3.5-9.7 10v5.6h-6.8v7.5h6.8V50h-22c-3 0-5.4-2.4-5.4-5.4V5.4C1 2.4 3.4 0 6.4 0h39.3C48.6 0 51 2.4 51 5.4z"/></symbol><symbol id="github-icon" viewBox="0 0 50 50" xml:space="preserve" xmlns="http://www.w3.org/2000/svg"><style>.dst0{fill:#fff}</style><path class="dst0" d="M44.6 0H5.4C2.4 0 0 2.4 0 5.4v39.3c0 3 2.4 5.4 5.4 5.4h39.3c3 0 5.4-2.4 5.4-5.4V5.4C50 2.4 47.6 0 44.6 0zM30.9 42.8c-.9.2-1.3-.4-1.3-.9v-6.2c0-1.7-.6-2.8-1.3-3.4 4.1-.5 8.5-1 8.5-8.2 0-2-.7-3-1.9-4.4.2-.5.8-2.5-.2-5-1.6-.5-5.1 2-5.1 2-1.5-.4-3.1-.6-4.6-.6s-3.2.2-4.6.6c0 0-3.5-2.5-5.1-2-1 2.6-.4 4.5-.2 5-1.2 1.3-1.7 2.3-1.7 4.4 0 7.1 4.2 7.7 8.3 8.2-.5.5-1 1.3-1.2 2.5-1.1.5-3.8 1.3-5.4-1.6-1-1.8-2.8-1.9-2.8-1.9-1.8 0-.1 1.1-.1 1.1 1.2.6 2.1 2.7 2.1 2.7 1.1 3.3 6.3 2.2 6.3 2.2v4.5c0 .5-.3 1.1-1.3.9C11.9 40.2 6.8 33.2 6.8 25c0-10.2 7.8-18 18.1-18s18.5 7.8 18.5 18c-.1 8.3-5.1 15.4-12.5 17.8zM20 36c-.2 0-.4 0-.4-.2s.1-.3.3-.4c.2 0 .4.1.4.2.1.2-.1.4-.3.4zm-1.1-.1c0 .1-.2.3-.4.3s-.4-.1-.4-.3c0-.1.2-.3.4-.3s.4.1.4.3zm-1.5-.1c0 .1-.3.2-.5.1-.2 0-.4-.2-.3-.4 0-.1.3-.2.5-.2.2.2.4.3.3.5zm-1.4-.6c-.1.1-.3.1-.5-.1-.2-.1-.2-.4-.1-.5.1-.1.3-.1.5.1s.2.4.1.5zm-1-1c-.1.1-.3 0-.4-.2s-.1-.4 0-.4c.1-.1.3 0 .4.1.1.2.1.4 0 .5zm-.7-1.1c-.1.1-.3 0-.4-.1-.1-.1-.1-.3 0-.4.1-.1.3 0 .4.1.1.1.1.3 0 .4zm-.8-.8c0 .1-.2.1-.3 0-.1-.1-.2-.2-.2-.3 0-.1.2-.1.3 0 .2 0 .3.2.2.3z"/></symbol><symbol id="jorgesaucedo-logo" viewBox="0 0 70 70" xml:space="preserve" xmlns="http://www.w3.org/2000/svg"><style>.est0{fill:#fff}</style><path class="est0" d="M20.3 15.4L5.9 32.9l14.4 17.7L0 33zM27.4 62.4l13.4-20.3L24.1 24 45.7 7.6 33.1 24.1l14.4 18.2zM49.7 50.6L64.1 33 49.7 15.4 70 33z"/></symbol><symbol id="linkedin-brands" viewBox="0 0 50 50" xml:space="preserve" xmlns="http://www.w3.org/2000/svg"><style>.fst0{fill:#fff}</style><path class="fst0" d="M46.4 0H3.6C1.6 0 0 1.6 0 3.6v42.8c0 2 1.6 3.6 3.6 3.6h42.9c2 0 3.6-1.6 3.6-3.6V3.6C50 1.6 48.4 0 46.4 0zM15.1 42.9H7.7V19h7.4v23.9zm-3.7-27.2c-2.4 0-4.3-1.9-4.3-4.3S9 7.1 11.4 7.1s4.3 1.9 4.3 4.3-1.9 4.3-4.3 4.3zm31.5 27.2h-7.4V31.3c0-2.8-.1-6.3-3.9-6.3-3.9 0-4.5 3-4.5 6.1v11.8h-7.4V19h7.1v3.3h.2c1-1.9 3.4-3.9 7-3.9 7.5 0 8.9 4.9 8.9 11.4v13.1z"/></symbol></svg>